<svg xmlns="http://www.w3.org/2000/svg" xmlns:xlink="http://www.w3.org/1999/xlink" width="384" height="379.001" viewBox="0 0 384 379.001">
  <defs>
    <linearGradient id="linear-gradient" x1="1" y1="0.224" x2="0.058" y2="0.809" gradientUnits="objectBoundingBox">
      <stop offset="0" stop-color="#d8463d"/>
      <stop offset="0.445" stop-color="#ed5641"/>
      <stop offset="0.453" stop-color="#f45c43"/>
      <stop offset="1" stop-color="#f3af41"/>
    </linearGradient>
  </defs>
  <g id="Group_29721" data-name="Group 29721" transform="translate(-12237 -13957)">
    <rect id="Rectangle_24274" data-name="Rectangle 24274" width="371" height="370" rx="6" transform="translate(12245 13964)" fill="none"/>
    <g id="Group_27819" data-name="Group 27819" transform="translate(12237.08 13957.08)">
      <rect id="Rectangle_24277" data-name="Rectangle 24277" width="90" height="90" transform="translate(-0.08 -0.08)" fill="none"/>
      <g id="Group_27815" data-name="Group 27815" transform="translate(22.865 10.528)">
        <g id="microphone">
          <path id="Path_10912" data-name="Path 10912" d="M45.01,261.863a2.047,2.047,0,0,0-4.095,0,18.16,18.16,0,1,1-36.32,0,2.047,2.047,0,0,0-4.095,0,22.284,22.284,0,0,0,20.207,22.16v5.512h-7.6a2.047,2.047,0,1,0,0,4.095H32.4a2.047,2.047,0,0,0,0-4.095H24.8v-5.512a22.284,22.284,0,0,0,20.208-22.16Zm0,0" transform="translate(-0.501 -224.979)" fill="#fff"/>
          <path id="Path_10913" data-name="Path 10913" d="M81.823,49.994A13.124,13.124,0,0,0,94.931,36.885V13.11a13.109,13.109,0,1,0-26.217,0V36.885A13.124,13.124,0,0,0,81.823,49.994ZM72.809,13.11a9.014,9.014,0,0,1,18.028,0V36.885a9.014,9.014,0,1,1-18.028,0Zm0,0" transform="translate(-59.568 -0.001)" fill="#fff"/>
        </g>
      </g>
    </g>
    <path id="Path_54262" data-name="Path 54262" d="M67.584,146.974l1.025,2.354q-2.735,1.186-5.51,2.26m10.925-4.775-1.142-2.3c1.792-.89,3.516-1.818,5.123-2.756l1.294,2.217c-1.655.969-3.43,1.922-5.276,2.837m10.341-6.074-1.475-2.1c1.615-1.131,3.15-2.324,4.564-3.539l1.676,1.945c-1.48,1.271-3.082,2.517-4.765,3.7m9.123-7.9-1.894-1.734a42.988,42.988,0,0,0,3.577-4.477l2.108,1.465a45.075,45.075,0,0,1-3.791,4.747m6.906-9.969L98.1,121.711a37.34,37.34,0,0,0,2.189-5.268l2.441.8a40.4,40.4,0,0,1-2.337,5.629m3.753-11.579-2.54-.376a29.888,29.888,0,0,0,.325-4.358c0-.427-.013-.854-.031-1.284l2.565-.114c.02.463.031.928.033,1.393a32.594,32.594,0,0,1-.353,4.739M101.06,99.712a27.634,27.634,0,0,0-1.983-5.268l2.3-1.142a29.924,29.924,0,0,1,2.166,5.759ZM96.076,89.661a34.826,34.826,0,0,0-3.827-4.208l1.757-1.874A37.349,37.349,0,0,1,98.115,88.1ZM87.81,81.83a53.358,53.358,0,0,0-4.874-3.077l1.256-2.24A54.711,54.711,0,0,1,89.3,79.74ZM77.757,76.155c-1.709-.768-3.521-1.5-5.39-2.171l.875-2.415c1.927.7,3.8,1.452,5.568,2.245Zm-10.93-3.966c-1.109-.323-2.22-.623-3.326-.9-.775-.2-1.554-.384-2.332-.57l.6-2.5c.791.188,1.579.379,2.365.577,1.131.285,2.273.592,3.412.92Zm-11.4-2.782-5.772-1.281.564-2.5L55.985,66.9ZM43.882,66.768c-1.935-.481-3.857-.989-5.754-1.543l.72-2.466C40.714,63.3,42.6,63.8,44.5,64.276ZM32.436,63.379c-1.958-.707-3.832-1.467-5.568-2.268l1.073-2.332c1.67.768,3.476,1.5,5.365,2.184Zm-10.918-5.07a48,48,0,0,1-5-3.422L18.1,52.865A45.211,45.211,0,0,0,22.832,56.1ZM12.006,50.8a42.871,42.871,0,0,1-3.857-4.706l2.1-1.482a39.557,39.557,0,0,0,3.623,4.419Zm-7.012-9.9a45.292,45.292,0,0,1-2.426-5.568l2.418-.864a43.162,43.162,0,0,0,2.286,5.253ZM.905,29.486a45.313,45.313,0,0,1-.87-6.013L2.6,23.28a42.719,42.719,0,0,0,.819,5.67ZM2.563,17.559,0,17.391A41.83,41.83,0,0,1,.834,11.36l2.512.539a39.189,39.189,0,0,0-.783,5.66m2.4-11.131-2.4-.91A41.8,41.8,0,0,1,5.131,0L7.376,1.248A39.433,39.433,0,0,0,4.963,6.428" transform="matrix(-0.848, 0.53, -0.53, -0.848, 12575.482, 14250.135)" fill="#fff"/>
    <path id="Path_54263" data-name="Path 54263" d="M142.868,65.377l-.636-1.823a30.209,30.209,0,0,0,3.944-1.7l.888,1.712a32.081,32.081,0,0,1-4.2,1.815m8.1-4.194-1.114-1.574A33.016,33.016,0,0,0,153.2,56.9l1.311,1.418a35.1,35.1,0,0,1-3.544,2.87m6.686-6.173-1.481-1.238a33.516,33.516,0,0,0,2.549-3.477l1.626,1.038a35.644,35.644,0,0,1-2.694,3.678m4.893-7.677-1.748-.816a32,32,0,0,0,1.552-4.012l1.842.569a33.247,33.247,0,0,1-1.645,4.259m2.683-8.711-1.905-.3q.126-.794.206-1.592c.09-.885.139-1.788.147-2.686l1.93.015c-.008.959-.061,1.922-.157,2.864-.057.567-.132,1.135-.222,1.7M163.4,29.754a31.964,31.964,0,0,0-.86-4.217l1.859-.512a34.09,34.09,0,0,1,.913,4.473Zm-52.294-3.919a7.472,7.472,0,0,1-3.68-1.039l.971-1.668a5.1,5.1,0,0,0,3.561.686l.438,1.878a5.7,5.7,0,0,1-1.29.143m-89.3-2.043c-1.534-.019-3.051-.1-4.507-.225l.174-1.922c1.406.126,2.872.2,4.356.218Zm4.5-.1-.105-1.926c1.416-.078,2.885-.2,4.366-.371l.218,1.916c-1.517.174-3.025.3-4.479.38m-13.491-.722c-1.509-.271-3-.613-4.416-1.016L8.931,20.1c1.36.384,2.784.711,4.232.973Zm22.414-.281-.315-1.9q2.167-.361,4.32-.814l.4,1.888q-2.193.461-4.4.829m81.042-.2-1.6-1.07a6.028,6.028,0,0,0,.944-3.365l-.006-.285,1.928-.082.008.369a7.937,7.937,0,0,1-1.269,4.433m44.855-1.018a34.252,34.252,0,0,0-1.924-3.86l1.67-.969a36.542,36.542,0,0,1,2.033,4.079Zm-56.923-.55c-.042-.138-.078-.275-.109-.417a8.605,8.605,0,0,1-.2-1.853,9.616,9.616,0,0,1,.39-2.658l1.853.535a7.731,7.731,0,0,0-.313,2.123,6.508,6.508,0,0,0,.157,1.433c.021.092.044.185.073.277ZM44,20.856l-.466-1.872q2.147-.536,4.257-1.137l.525,1.857q-2.138.608-4.316,1.152M4.11,20.485A40.222,40.222,0,0,1,0,18.549l.919-1.7A38.772,38.772,0,0,0,4.832,18.7Zm48.482-2.054-.571-1.844q2.112-.653,4.223-1.336l.592,1.836q-2.124.685-4.244,1.343M61.06,15.72l-.594-1.836q2.112-.685,4.228-1.364l.587,1.84q-2.112.674-4.221,1.36M156.8,14.025a33.13,33.13,0,0,0-2.843-3.237l1.362-1.366a34.869,34.869,0,0,1,3.011,3.428Zm-42.27-.073a8.011,8.011,0,0,0-1.437-1.9,10.939,10.939,0,0,0-1.236-1.03l1.122-1.569a12.77,12.77,0,0,1,1.46,1.213,9.952,9.952,0,0,1,1.785,2.36Zm-45.029-.915-.564-1.844q2.135-.651,4.278-1.259l.524,1.857q-2.121.6-4.238,1.246M108,12.886l-1.561-1.135a21.164,21.164,0,0,1,2.912-3.21l.231-.2,1.278,1.444-.212.189A19.138,19.138,0,0,0,108,12.886M78,10.653,77.534,8.78q2.172-.545,4.358-1.009l.4,1.888q-2.147.453-4.288.994m30.156-1.464a22.543,22.543,0,0,0-4.152-.921l.256-1.913a24.532,24.532,0,0,1,4.5,1ZM86.606,8.853l-.31-1.9q2.221-.361,4.452-.6l.2,1.918q-2.178.229-4.343.585m64.108-.885a30.2,30.2,0,0,0-3.605-2.333l.927-1.691a31.445,31.445,0,0,1,3.839,2.484Zm-55.4-.019-.078-1.928Q97.482,5.929,99.744,6l-.065,1.928c-1.46-.046-2.918-.04-4.366.017m18.958-.772-1.055-1.615A32.821,32.821,0,0,1,117.2,3.335l.824,1.744a31.394,31.394,0,0,0-3.756,2.1M143.2,3.858a30.97,30.97,0,0,0-4.127-1.2l.409-1.886a32.987,32.987,0,0,1,4.387,1.274Zm-21.165-.352-.585-1.838a35.556,35.556,0,0,1,4.425-1.1l.344,1.9a33.214,33.214,0,0,0-4.184,1.038m12.777-1.473a33.112,33.112,0,0,0-4.311-.059l-.1-1.928a34.907,34.907,0,0,1,4.559.063Z" transform="translate(12288.488 14027.222) rotate(18)" fill="#fff"/>
    <g id="Group_27818" data-name="Group 27818" transform="translate(12382.215 14101.463)">
      <rect id="Rectangle_24278" data-name="Rectangle 24278" width="90" height="91" transform="translate(-0.215 -0.463)" fill="none"/>
      <path id="Path_13693" data-name="Path 13693" d="M71.633,24.6h0v3.488c-.04.2-.1.4-.122.6a22.138,22.138,0,0,1-3.642,9.765,53.9,53.9,0,0,1-10.051,11.01C52.65,53.988,47.4,58.423,42.185,62.894a3.874,3.874,0,0,1-5.476.071l-.058-.058c-4.844-4.143-9.7-8.268-14.512-12.428a69.138,69.138,0,0,1-9.315-9.422A23.868,23.868,0,0,1,7.41,29.329a19.368,19.368,0,0,1,4.526-16.022A16.888,16.888,0,0,1,29.237,7.8,16.419,16.419,0,0,1,37.9,13.138c.515.563.993,1.158,1.5,1.772.553-.644,1.048-1.289,1.6-1.877A16.649,16.649,0,0,1,57.058,7.62,17.772,17.772,0,0,1,70.985,21.255a16.46,16.46,0,0,1,.648,3.348" transform="translate(5.452 9.313)" fill="#fd5d53"/>
    </g>
    <g id="Group_27817" data-name="Group 27817" transform="translate(12531.11 14245.847)">
      <rect id="Rectangle_24279" data-name="Rectangle 24279" width="90" height="90" transform="translate(-0.111 0.154)" fill="none"/>
      <g id="Group_27816" data-name="Group 27816" transform="translate(15.011 7.52)">
        <path id="Path_8051" data-name="Path 8051" d="M1217.015,557.147c-.011-.217-.029-.431-.043-.648-.025-.394-.053-.787-.09-1.178-.024-.243-.054-.482-.082-.723-.043-.362-.087-.723-.139-1.082-.037-.248-.077-.495-.118-.741-.058-.348-.12-.7-.188-1.041q-.072-.37-.152-.737c-.074-.345-.155-.686-.239-1.027-.059-.238-.118-.476-.181-.712-.093-.35-.2-.7-.3-1.043-.066-.22-.129-.441-.2-.659-.12-.378-.251-.75-.384-1.123-.065-.18-.124-.364-.192-.544q-.306-.823-.648-1.629c-.3-.706-.631-1.4-.974-2.078-.1-.191-.2-.38-.295-.569q-.422-.806-.882-1.589c-.086-.148-.169-.3-.258-.445q-.624-1.03-1.312-2.016c-.1-.15-.213-.3-.32-.444q-.605-.845-1.256-1.654c-.1-.127-.2-.257-.3-.383-.273-.331-.558-.654-.842-.976-.139-.156-.273-.318-.414-.472q-.647-.707-1.327-1.384t-1.4-1.313c-.156-.141-.32-.273-.479-.41-.325-.281-.651-.562-.985-.833-.127-.1-.26-.2-.389-.3q-.817-.643-1.669-1.241c-.151-.106-.3-.214-.451-.317q-1-.679-2.037-1.3c-.148-.088-.3-.17-.449-.255q-.79-.455-1.606-.873c-.192-.1-.383-.2-.577-.292-.69-.339-1.387-.665-2.1-.963-.126-.053-.256-.1-.383-.149-.447-.181-.894-.362-1.349-.527-.208-.076-.422-.14-.631-.212-.38-.13-.758-.264-1.143-.382-.207-.064-.42-.116-.629-.177-.392-.113-.783-.231-1.181-.332-.252-.064-.509-.116-.764-.175-.361-.083-.718-.173-1.082-.246-.262-.054-.529-.093-.793-.141-.362-.066-.721-.137-1.086-.192-.269-.041-.541-.067-.811-.1-.366-.047-.729-.1-1.1-.138-.287-.029-.578-.043-.867-.066-.357-.028-.711-.063-1.07-.081-.3-.015-.6-.014-.9-.023-.36-.011-.719-.027-1.082-.027q-.989,0-1.965.049h0c-.622.031-1.239.079-1.852.139-.163.016-.323.038-.486.057-.435.048-.867.1-1.3.163-.213.031-.425.067-.637.1q-.568.092-1.131.2c-.22.042-.44.087-.659.134-.164.035-.325.075-.489.111l.676,2.936a35.715,35.715,0,0,1,7.84-.868,35.2,35.2,0,0,1,24.843,10.182,34.642,34.642,0,0,1,7.53,11.051,34.549,34.549,0,0,1,0,27.06,34.644,34.644,0,0,1-7.53,11.051,35.344,35.344,0,0,1-49.971-.286l-2.179,2.107c.037.038.073.076.11.114q.886.891,1.834,1.721c.809.713,1.645,1.4,2.514,2.041h0c.176.13.36.251.538.379q.847.6,1.727,1.162c.158.1.314.2.473.3q1.029.631,2.1,1.2c.48.255.963.5,1.455.737h0q.825.393,1.672.748l.133.052q.71.295,1.437.561c.163.06.329.117.493.175q.575.2,1.158.388c.169.054.338.108.508.16q.712.214,1.434.4c.07.018.14.039.211.057.551.14,1.107.265,1.667.381.16.032.322.061.482.092q.619.12,1.246.221.277.044.557.085c.445.064.892.119,1.342.168.135.014.269.032.4.046.611.06,1.226.108,1.845.139h0q.975.049,1.964.049a38.545,38.545,0,0,0,11.355-1.7q1.794-.552,3.509-1.27c.712-.3,1.411-.625,2.1-.964.193-.094.384-.193.575-.291q.815-.418,1.608-.873c.149-.086.3-.168.448-.255q1.041-.618,2.037-1.3c.152-.1.3-.211.45-.317q.852-.6,1.671-1.242c.129-.1.26-.2.388-.3.333-.27.658-.549.982-.83.16-.138.324-.272.483-.413q.715-.639,1.4-1.313t1.327-1.384c.141-.155.276-.317.415-.475.284-.322.568-.644.841-.974.1-.126.2-.256.3-.384q.651-.808,1.256-1.653c.107-.148.215-.295.32-.445q.686-.986,1.312-2.016c.089-.147.171-.3.258-.444q.459-.783.882-1.589c.1-.19.2-.378.294-.569.343-.682.673-1.373.974-2.078q.363-.848.684-1.716a37.249,37.249,0,0,0,2.12-9.128,37.829,37.829,0,0,0,.2-3.863C1217.062,558.357,1217.044,557.75,1217.015,557.147Z" transform="translate(-1151.567 -521.182)" fill="url(#linear-gradient)"/>
      </g>
    </g>
    <g id="Group_27844" data-name="Group 27844" transform="translate(12546.256 14262.185)">
      <g id="profile-user_1_" data-name="profile-user (1)" transform="translate(0 0)">
        <path id="Path_7971" data-name="Path 7971" d="M28.784,0A28.783,28.783,0,1,0,57.569,28.784,28.785,28.785,0,0,0,28.784,0Zm0,8.606a9.521,9.521,0,1,1-9.519,9.521A9.521,9.521,0,0,1,28.784,8.607Zm-.006,41.434a21.125,21.125,0,0,1-13.756-5.073A4.057,4.057,0,0,1,13.6,41.885a9.6,9.6,0,0,1,9.648-9.6H34.325a9.588,9.588,0,0,1,9.633,9.6,4.047,4.047,0,0,1-1.422,3.082A21.117,21.117,0,0,1,28.778,50.042Z" transform="translate(0 -0.001)" fill="none" stroke="#fff" stroke-width="3"/>
      </g>
    </g>
  </g>
</svg>
