<svg xmlns="http://www.w3.org/2000/svg" xmlns:xlink="http://www.w3.org/1999/xlink" width="599.67" height="290.902" viewBox="0 0 599.67 290.902">
  <defs>
    <linearGradient id="linear-gradient" y1="0.012" x2="1" y2="0.012" gradientUnits="objectBoundingBox">
      <stop offset="0" stop-color="#f4af32"/>
      <stop offset="0.525" stop-color="#f45c43"/>
      <stop offset="1" stop-color="#da4537"/>
    </linearGradient>
  </defs>
  <g id="final-logo" transform="translate(-3.939 -16.1)">
    <g id="Group_2" data-name="Group 2" transform="translate(3.94 130.533)">
      <path id="Path_1" data-name="Path 1" d="M233.714,261.913c0-27.8-17.182-50.948-43.778-59-26.59-8.028-53.734,1.691-69.144,24.812l-2.91,4.347-.019-.031L97.976,261.851l.031.05L87.448,277.733c-7.58,11.361-18.9,13.923-28.207,12.381a25.039,25.039,0,0,1-8.351-3.737c-10.453,2.63-22.324,1.356-22.324,1.356,7.475-3.1,10.982-9.856,12.624-15.49a39.256,39.256,0,0,1-1.474-10.951c0-17.045,9.583-29.413,27.467-29.413a32.657,32.657,0,0,1,21.081,7.686L109.344,217.5a52.981,52.981,0,0,0-24.868-14.738,74.634,74.634,0,0,0-20.167-2.643c-37.05,0-60.369,24.066-60.369,61.507,0,30.2,15.584,52.565,42.193,59.349,26.485,7.91,53.473-1.847,68.851-24.886l2.9-4.353h0L137.769,261.9h0l10.559-15.826c8.65-12.984,22.169-14.483,32.013-11.486,9.807,2.96,20.279,11.7,20.279,27.324,0,.728-.044,1.43-.087,2.133h-.012v.3c-1.032,14.079-10.895,22.063-20.173,24.868-9.769,2.985-23.351,1.511-32.013-11.479l-5.423-8.134-19.856,29.65a60.153,60.153,0,0,0,48.368,24.426,63.922,63.922,0,0,0,18.531-2.78,65.152,65.152,0,0,0,10.571-4.247v7.039H233.72V264.046h-.044C233.7,263.337,233.714,262.629,233.714,261.913Z" transform="translate(-3.94 -200.12)" fill="url(#linear-gradient)"/>
      <circle id="Ellipse_1" data-name="Ellipse 1" cx="4.44" cy="4.44" r="4.44" transform="translate(198.737 28.947)" fill="#fff"/>
    </g>
    <g id="Group_3" data-name="Group 3" transform="translate(245.815 16.1)">
      <path id="Path_2" data-name="Path 2" d="M455.44,293.13c8.532,0,15.478-3.638,21.479-7.605l19.9,21.815c-11.373,11.9-27.479,17.518-44.537,17.518-36.957,0-59.381-24.794-59.381-60.823,0-37.025,23.058-60.823,59.7-60.823,16.74,0,33.164,4.956,44.537,17.188L476.29,242.212a32.28,32.28,0,0,0-20.851-7.605c-17.685,0-27.162,12.232-27.162,29.09C428.271,281.234,438.065,293.13,455.44,293.13Z" transform="translate(-392.9 -86.856)" fill="#da4537"/>
      <path id="Path_3" data-name="Path 3" d="M609.287,254.107H573.91V16.1h35.377V150.973c7.58-9.589,19.265-15.2,34.432-15.2,30.956,0,45.8,21.155,45.8,53.554v64.791H653.824V189.982c0-15.87-8.215-25.123-22.113-25.123-13.264,0-22.424,8.594-22.424,25.452Z" transform="translate(-461.349 -16.1)" fill="#da4537"/>
      <path id="Path_4" data-name="Path 4" d="M802.632,377.765H765.042l36.64-75.7L754.93,203.23h38.536l27.479,60.493L849.06,203.23H887.6Z" transform="translate(-529.801 -86.863)" fill="#da4537"/>
    </g>
  </g>
</svg>
